<?xml version="1.0" encoding="iso-8859-1"?>
<!-- Generator: Adobe Illustrator 19.0.0, SVG Export Plug-In . SVG Version: 6.00 Build 0)  -->
<svg version="1.1" id="not-data"
	xmlns="http://www.w3.org/2000/svg"
	xmlns:xlink="http://www.w3.org/1999/xlink" x="0px" y="0px" viewBox="0 0 496 496" xml:space="preserve">

	<path fill="currentColor" stroke-width="10" d="M445.6,32C456,32,464,40,464,50.4v395.2c0,10.4-8,18.4-18.4,18.4H50.4C40,464,32,456,32,445.6V50.4
	C32,40,40,32,50.4,32H448 M445.6,0H50.4C22.4,0,0,22.4,0,50.4v395.2c0,28,22.4,50.4,50.4,50.4h395.2c28,0,50.4-22.4,50.4-50.4V50.4
	C496,22.4,473.6,0,445.6,0L445.6,0z"/>
	<circle style="fill:#EF0770;" cx="248" cy="248" r="142.4"/>
	<path style="fill:#BF0261;" d="M147.2,147.2C202.4,92,292.8,92,348,147.2s55.2,145.6,0,200.8"/>
	<path fill="currentColor" stroke-width="10" d="M248,405.6c-87.2,0-157.6-70.4-157.6-157.6S160.8,90.4,248,90.4S405.6,160.8,405.6,248
	S335.2,405.6,248,405.6z M248,121.6c-69.6,0-126.4,56.8-126.4,126.4S178.4,374.4,248,374.4S374.4,317.6,374.4,248
	S317.6,121.6,248,121.6z"/>
	<path style="opacity:0.2;fill:#616F70;enable-background:new    ;" d="M346.4,316.8l-48-48l48-48c7.2-7.2,10.4-16,10.4-25.6
	c0-8.8-3.2-18.4-10.4-25.6c-13.6-13.6-36.8-13.6-50.4,0l-48,48l-48-48c-13.6-13.6-36.8-13.6-50.4,0c-13.6,13.6-13.6,36.8,0,50.4
	l48,48l-48,48c-13.6,13.6-13.6,36.8,0,50.4s36.8,13.6,50.4,0l48-48l48,48c7.2,7.2,16,10.4,25.6,10.4c8.8,0,18.4-3.2,25.6-10.4
	C360,353.6,360,331.2,346.4,316.8z"/>
	<path style="fill:#FAFDFE;" d="M346.4,290.4l-48-48l48-48c7.2-7.2,10.4-16,10.4-25.6c0-8.8-3.2-18.4-10.4-25.6
	c-13.6-13.6-36.8-13.6-50.4,0l-48,48l-48-48c-13.6-13.6-36.8-13.6-50.4,0c-13.6,13.6-13.6,36.8,0,50.4l48,48l-48,48
	c-13.6,13.6-13.6,36.8,0,50.4s36.8,13.6,50.4,0l48-48l48,48c7.2,7.2,16,10.4,25.6,10.4c8.8,0,18.4-3.2,25.6-10.4
	C360,326.4,360,304,346.4,290.4z"/>

</svg>
