<?xml version="1.0" ?>
<svg id="tornado" version="1.1" viewBox="0 0 32 32" xml:space="preserve"
    xmlns="http://www.w3.org/2000/svg"
    xmlns:xlink="http://www.w3.org/1999/xlink">
    <g>
        <path d="M22,7H8C5.791,7,4,5.209,4,3V1h22v2C26,5.209,24.209,7,22,7z" fill="white"/>
        <path d="M23,13H11c-1.657,0-3-1.343-3-3v0c0-1.657,1.343-3,3-3h12c1.657,0,3,1.343,3,3v0    C26,11.657,24.657,13,23,13z" fill="white"/>
        <path d="M21,19h-8c-1.657,0-3-1.343-3-3v0c0-1.657,1.343-3,3-3h8c1.657,0,3,1.343,3,3v0C24,17.657,22.657,19,21,19    z" stroke="white" fill="white"/>
        <path d="M23,25h-6c-1.657,0-3-1.343-3-3v0c0-1.657,1.343-3,3-3h6c1.657,0,3,1.343,3,3v0C26,23.657,24.657,25,23,25    z" stroke="white" fill="white"/>
        <path d="M23,25c0,3,3,5,5,6c-6,0-11-2-11-6H23z" fill="white"/>
    </g>
    <g>
        <rect fill="currentColor" height="2" width="10" x="12" y="12"/>
        <path d="M28.447,30.105c-1.472-0.736-3.824-2.209-4.341-4.281C25.772,25.341,27,23.82,27,22    c0-1.744-1.128-3.214-2.687-3.761C24.746,17.6,25,16.829,25,16s-0.254-1.6-0.687-2.239C25.872,13.214,27,11.744,27,10    c0-1.352-0.677-2.543-1.706-3.268C26.331,5.815,27,4.49,27,3V1c0-0.553-0.447-1-1-1H4C3.448,0,3,0.447,3,1v2    c0,2.613,2.022,4.74,4.579,4.957C7.22,8.557,7,9.251,7,10c0,1.744,1.128,3.214,2.687,3.761C9.254,14.4,9,15.171,9,16    c0,2.206,1.794,4,4,4h0.556C13.212,20.591,13,21.268,13,22c0,1.887,1.317,3.463,3.077,3.882C16.69,29.627,21.229,32,28,32    c0.464,0,0.866-0.319,0.974-0.771C29.08,30.778,28.862,30.312,28.447,30.105z M5,3V2h20v1c0,1.654-1.346,3-3,3H11H8    C6.346,6,5,4.654,5,3z M11,16c0-1.103,0.897-2,2-2h2v-2h-2h-2c-1.103,0-2-0.897-2-2s0.897-2,2-2h11h1c1.103,0,2,0.897,2,2    s-0.897,2-2,2h-2v2c1.103,0,2,0.897,2,2s-0.897,2-2,2h-4h-4C11.897,18,11,17.103,11,16z M15,22c0-1.103,0.897-2,2-2h4h2    c1.103,0,2,0.897,2,2s-0.897,2-2,2h-6C15.897,24,15,23.103,15,22z M18.152,26h3.942c0.252,1.321,1.002,2.573,2.203,3.697    C21.282,29.179,18.78,27.979,18.152,26z" fill="currentColor"/>
    </g>
</svg>